# xmcd
#
# Track frame offsets:
#	150
#	20733
#	42653
#	65245
#	87929
#	110955
#	135111
#	162787
#	182209
#	200638
#
# Disc length: 2957 seconds
#
# Revision: 0
# Processed by: cddbd v1.5.2PL0 Copyright (c) Steve Scherf et al.
# Submitted via: EasyCDDAExtractor 11.5.0.1
#
DISCID=940b8b0a
DTITLE=Various Artist - 10th. Anniversary Collection Vol. VI
DYEAR=1997
DGENRE=Latin
TTITLE0=Louie Ramirez and Ray de la Paz - Otra Noche caliente
TTITLE1=Johnny Rivera - Tiempo de Estudiente
TTITLE2=Tony Vega - Si me Miras a los Ojos
TTITLE3=India - Vivir sin Tu
TTITLE4=Jose Alberto "El Canario" - Bailemos Otra Vez
TTITLE5=Michael Stuart - Imaginando tu Amor
TTITLE6=Groupo ABC - Que Lastima
TTITLE7=Tito Nieves - Vuelve Me a Querer
TTITLE8=Cheo Feliciano - Coincidencia
TTITLE9=Jesus Henriquez - Como Fiera, Como Dama
EXTD=
EXTT0=
EXTT1=
EXTT2=
EXTT3=
EXTT4=
EXTT5=
EXTT6=
EXTT7=
EXTT8=
EXTT9=
PLAYORDER=
